<?xml version="1.0" encoding="utf-8"?>
<!-- Svg Vector Icons : http://www.onlinewebfonts.com/icon -->
<!DOCTYPE svg PUBLIC "-//W3C//DTD SVG 1.1//EN" "http://www.w3.org/Graphics/SVG/1.1/DTD/svg11.dtd">
<svg version="1.1" xmlns="http://www.w3.org/2000/svg" xmlns:xlink="http://www.w3.org/1999/xlink" x="0px" y="0px" viewBox="0 0 1000 1000" enable-background="new 0 0 1000 1000" xml:space="preserve">
<metadata> Svg Vector Icons : http://www.onlinewebfonts.com/icon </metadata>
<g><g transform="translate(0.000000,512.000000) scale(0.100000,-0.100000)"><path d="M5374.7,5003.1c-164.7-61.3-277.6-229.8-277.6-411.6c0-134,63.2-323.5,141.7-428.9c34.5-47.9,329.3-373.3,652.9-725.6l589.7-637.5l273.8,273.8c164.7,164.7,268,281.4,260.4,294.8c-7.7,13.4-235.5,338.9-509.3,725.6c-507.4,719.9-574.4,798.4-748.6,875C5650.4,5016.5,5458.9,5033.8,5374.7,5003.1z M5759.5,4859.5c42.1-15.3,111-61.3,151.3-103.4l74.7-76.6l-65.1-57.4c-68.9-57.4-95.7-68.9-95.7-40.2s-170.4,208.7-239.3,250.8c-36.4,23-67,49.8-67,59.3C5518.3,4915,5656.2,4895.9,5759.5,4859.5z"/><path d="M8775,4771.5c-68.9-15.3-116.8-51.7-273.8-202.9l-189.5-183.8l407.8-407.8l407.8-407.8l158.9,158.9c193.4,193.4,241.3,281.4,229.7,426.9l-9.6,105.3l-247,248.9c-139.8,141.7-268,252.7-294.9,258.5c-26.8,5.7-61.3,13.4-76.6,17.2C8872.6,4786.8,8820.9,4781,8775,4771.5z"/><path d="M678.3,4208.6c-55.5-13.4-128.3-40.2-160.8-57.4c-88.1-45.9-254.6-210.6-312.1-304.4C94.3,3657.2,100,3806.5,100,563.2c0-1935.6,7.7-3005.9,21.1-3061.4c65.1-283.4,308.2-528.4,591.6-593.5c53.6-13.4,511.2-21.1,1211.9-21.1c618.4,0,1123.9-7.7,1123.9-15.3c0-9.6-128.3-308.3-287.2-664.4c-314-708.4-331.2-771.6-245.1-880.7c84.2-109.1,36.4-105.3,1700.1-105.3c1663.8,0,1615.9-3.8,1700.1,105.3c88.1,111,70.8,174.2-245.1,886.4c-157,358-287.2,656.7-287.2,662.5c0,5.7,505.4,11.5,1125.8,11.5c687.3,0,1156.4,7.7,1208.1,21.1c233.6,53.6,472.9,254.6,561,471l44,111l5.7,1246.4l5.7,1246.4L8214,42.5c-67,32.5-153.2,88.1-191.5,124.4l-72.7,67v-846.2c0-955.4-3.8-984.1-128.3-1106.6c-40.2-38.3-97.6-80.4-126.4-90c-38.3-15.3-1114.3-21.1-3482.6-21.1c-3819.6,0-3490.3-11.5-3622.4,134c-44,49.8-72.8,105.3-86.2,176.1c-15.3,72.8-21.1,819.4-17.2,2580.8c5.7,2730.2-1.9,2544.5,122.5,2667c128.3,126.3-42.1,116.8,2261.1,128.3l2090.7,9.6l-72.8,114.9c-40.2,63.2-84.2,147.4-99.6,187.6l-24.9,70.8l-1993.1-1.9C1114.8,4237.3,762.5,4231.5,678.3,4208.6z M4350.4-2266.5c36.4-17.2,86.2-63.2,111-99.6c38.3-55.5,44-86.2,38.3-178c-7.7-93.8-17.2-118.7-72.8-176.2c-124.4-128.3-296.8-128.3-421.2,0c-55.5,57.4-65.1,82.3-72.8,176.2c-5.8,91.9,0,122.5,38.3,178c53.6,80.4,153.2,134,245.1,134C4252.8-2232,4314-2247.4,4350.4-2266.5z"/><path d="M6781.9,2851.1L5393.8,1463.1l407.8-405.9l405.9-407.8l1391.9,1393.8l1393.8,1391.9l-292.9,291l-291,292.9L7088.3,2698L5769.1,1378.8l-59.3,55.5l-59.4,55.5l1323,1323l1323,1323l-55.5,51.7c-28.7,28.7-57.4,51.7-63.2,51.7C8173.8,4239.2,7545.8,3615,6781.9,2851.1z"/><path d="M7700.9,1893.9l-199.1-199.1l38.3-44c19.1-23,126.4-143.6,237.4-266.1c111-122.5,235.5-264.2,279.5-312.1c42.1-47.9,84.2-88.1,95.7-88.1c38.3,0,333.1,252.7,333.1,287.2c0,19.1-46,93.8-101.5,164.6c-57.4,72.7-181.9,247-279.5,384.8c-97.6,139.8-183.8,258.5-191.5,262.3C7905.8,2089.2,7810,2003,7700.9,1893.9z"/><path d="M5261.7,1308c-5.7-13.4-63.2-241.2-126.4-505.4c-63.2-262.3-120.6-492.1-126.4-509.3c-7.7-26.8,88.1-7.6,522.7,101.5c292.9,72.8,534.2,134,536.1,137.8c1.9,1.9-176.1,183.8-396.3,404C5401.5,1206.5,5267.5,1327.1,5261.7,1308z"/><path d="M8568.2,1078.2c-116.8-44-292.9-197.2-338.9-292.9c-40.2-84.2-38.3-191.5,0-260.4c70.8-116.8,321.7-222.1,673.9-279.5c289.1-47.9,1051.1-13.4,993.7,44.1c-5.7,5.7-97.7,17.2-202.9,24.9c-296.8,23-377.2,90-492,413.5c-78.5,218.3-132.1,298.7-237.4,352.3C8866.9,1129.9,8700.3,1129.9,8568.2,1078.2z"/></g></g>
</svg>